<svg width="30" height="30" viewBox="0 0 30 30" fill="none" xmlns="http://www.w3.org/2000/svg">
<g clip-path="url(#clip0_37_115)">
<path d="M26.25 18.75H12.825C11.825 18.75 10.8875 18.3625 10.175 17.65L8.4 15.8875C8.1625 15.65 8.0375 15.3375 8.0375 15C8.0375 14.6625 8.175 14.35 8.4 14.1125L10.175 12.35C10.8875 11.6375 11.825 11.25 12.825 11.25H26.25C28.3125 11.25 30 12.9375 30 15C30 17.0625 28.3125 18.75 26.25 18.75ZM11.0625 15L11.95 15.8875C12.1875 16.125 12.5 16.25 12.8375 16.25H26.2625C26.95 16.25 27.5125 15.6875 27.5125 15C27.5125 14.3125 26.95 13.75 26.2625 13.75H12.825C12.5 13.75 12.175 13.8875 11.9375 14.1125L11.05 15H11.0625ZM22.5 7.5H12.825C11.825 7.5 10.8875 7.1125 10.175 6.4L8.4 4.6375C8.1625 4.4 8.0375 4.0875 8.0375 3.75C8.0375 3.4125 8.175 3.1 8.4 2.8625L10.175 1.1C10.8875 0.3875 11.825 0 12.825 0H22.5C24.5625 0 26.25 1.6875 26.25 3.75C26.25 5.8125 24.5625 7.5 22.5 7.5ZM11.0625 3.75L11.95 4.6375C12.1875 4.875 12.5 5 12.8375 5H22.5125C23.2 5 23.7625 4.4375 23.7625 3.75C23.7625 3.0625 23.2 2.5 22.5125 2.5H12.8375C12.5125 2.5 12.1875 2.6375 11.95 2.8625L11.0625 3.75ZM20 30H12.825C11.825 30 10.8875 29.6125 10.175 28.9L8.4 27.1375C8.1625 26.9 8.0375 26.5875 8.0375 26.25C8.0375 25.9125 8.175 25.6 8.4 25.3625L10.175 23.6C10.8875 22.8875 11.825 22.5 12.825 22.5H20C22.0625 22.5 23.75 24.1875 23.75 26.25C23.75 28.3125 22.0625 30 20 30ZM11.0625 26.25L11.95 27.1375C12.1875 27.375 12.5 27.5 12.8375 27.5H20.0125C20.7 27.5 21.2625 26.9375 21.2625 26.25C21.2625 25.5625 20.7 25 20.0125 25H12.8375C12.5125 25 12.1875 25.1375 11.95 25.3625L11.0625 26.25ZM2.5 23.75C1.125 23.75 0 24.875 0 26.25C0 27.625 1.125 28.75 2.5 28.75C3.875 28.75 5 27.625 5 26.25C5 24.875 3.875 23.75 2.5 23.75ZM2.5 12.5C1.125 12.5 0 13.625 0 15C0 16.375 1.125 17.5 2.5 17.5C3.875 17.5 5 16.375 5 15C5 13.625 3.875 12.5 2.5 12.5ZM2.5 1.25C1.125 1.25 0 2.375 0 3.75C0 5.125 1.125 6.25 2.5 6.25C3.875 6.25 5 5.125 5 3.75C5 2.375 3.875 1.25 2.5 1.25Z" fill="white"/>
</g>
<defs>
<clipPath id="clip0_37_115">
<rect width="30" height="30" fill="white"/>
</clipPath>
</defs>
</svg>
