<svg width="100%" height="100%" viewBox="0 0 211 16" fill="none" xmlns="http://www.w3.org/2000/svg">
<g clip-path="url(#clip0_2009_149)">
<path d="M3.57367 2.65725L10.8366 15.5463L19.244 15.5528L26.3825 2.65725H29.9606V0.321289H19.1974V2.65725H22.3066L17.1083 12.0445L11.8411 2.65725H15.6193L15.617 0.321289H0.00222243L0 2.65725H3.57367Z" fill="white"/>
<path d="M96.098 2.6529V0.321289H110.495V2.6529H106.908V13.1734H110.233C113.313 13.1734 115.333 11.1848 115.333 8.48845H117.709V15.5332H96.0958V13.1756H99.725L99.7206 2.65073H96.0958L96.098 2.6529Z" fill="white"/>
<path d="M61.1836 0C53.954 0 50.1136 3.52347 50.1136 7.94356C50.1136 12.3636 53.8118 16 61.2258 16C68.6398 16 72.2957 12.4266 72.2957 7.94356C72.2957 3.46052 68.4154 0 61.1836 0ZM61.1036 13.5794C58.4633 13.5338 57.3032 10.6833 57.3521 7.8502C57.4054 4.91723 58.8411 2.35984 61.3147 2.40109C63.7883 2.4445 65.0951 5.04966 65.0417 7.98263C64.9906 10.7484 63.8238 13.6293 61.1036 13.5815V13.5794Z" fill="white"/>
<path d="M142.273 2.65725L149.534 15.5463L157.944 15.5528L165.082 2.65725H168.66V0.321289H157.897V2.65725H161.006L155.808 12.0445L150.541 2.65725H154.317V0.321289H138.702L138.7 2.65725H142.273Z" fill="white"/>
<path d="M199.888 0C192.658 0 188.818 3.52347 188.818 7.94356C188.818 12.3636 192.516 16 199.93 16C207.344 16 211 12.4266 211 7.94356C211 3.46052 207.12 0 199.888 0ZM199.808 13.5794C197.168 13.5338 196.007 10.6833 196.059 7.8502C196.112 4.91723 197.548 2.35984 200.021 2.40109C202.495 2.4445 203.799 5.04966 203.746 7.98263C203.697 10.7484 202.528 13.6293 199.808 13.5815V13.5794Z" fill="white"/>
</g>
<defs>
<clipPath id="clip0_2009_149">
<rect width="211" height="16" fill="white"/>
</clipPath>
</defs>
</svg>
