<svg width="100%" height="100%" viewBox="0 0 94 24" fill="none" xmlns="http://www.w3.org/2000/svg">
<path d="M33.4147 23.4829C33.3541 23.4436 33.3339 23.2911 33.349 22.9765L33.3692 22.5241L33.6068 22.4749C33.7382 22.4504 34.0162 22.3963 34.2285 22.3569C34.8805 22.2389 35.2596 21.8898 35.4719 21.2162C35.6437 20.6655 35.7196 18.9004 35.7246 15.3603C35.7297 11.0285 35.6387 10.0058 35.1838 9.42561C34.9412 9.11093 34.7643 9.02243 34.1729 8.91426C33.8797 8.86017 33.5714 8.80117 33.4906 8.7815C33.3541 8.75692 33.3389 8.71267 33.3389 8.38815C33.3389 8.06364 33.3591 8.01939 33.4906 7.9653C33.6927 7.88663 40.3898 6.58367 40.6021 6.58367H40.7689L40.7335 7.55229C40.7184 8.08331 40.688 8.86017 40.6729 9.2781L40.6426 10.0353L40.8852 9.61245C41.6635 8.25048 42.5329 7.40478 43.6904 6.88851C44.3272 6.60334 44.7518 6.51975 45.5352 6.51975C46.4652 6.51975 47.3953 6.81476 47.3953 7.10977C47.3953 7.30645 45.7526 11.5251 45.6616 11.5595C45.6161 11.5743 45.2977 11.4563 44.9489 11.294C44.2261 10.9548 43.5438 10.7876 42.8867 10.7925C42.0628 10.7925 41.148 11.0875 40.7841 11.4661C40.6324 11.6284 40.6274 11.6382 40.592 14.0524C40.5516 16.442 40.6375 19.3626 40.774 20.5377C40.8902 21.5358 41.1632 22.0275 41.7293 22.2586C41.9163 22.3373 43.1091 22.4946 43.4932 22.4946C43.5236 22.4946 43.5387 22.7257 43.5286 23.006L43.5084 23.5173L38.5045 23.5321C35.7549 23.5419 33.4653 23.5222 33.4147 23.4927M0.0960339 23.5075C0.0404353 23.4878 0.0101088 23.3206 0.0101088 23.0207C0.0101088 22.4749 -0.0252722 22.4995 1.05637 22.3029C1.8853 22.1553 2.18351 21.998 2.55248 21.5309C3.26515 20.6213 3.41678 18.8758 3.41678 11.6824C3.41678 4.92669 3.28537 3.50572 2.54743 2.46334C2.21889 2.00116 1.67301 1.74548 0.748053 1.64223L0.0404353 1.55864L0.0202177 1.01779L0 0.476935L0.222394 0.4376C0.3437 0.417933 4.63995 0.408099 9.77019 0.417933L19.0956 0.4376L19.1411 0.698193C19.1663 0.840782 19.2017 2.32567 19.227 3.9974L19.2725 7.0311L18.7923 7.17369C18.0695 7.38512 18.0746 7.39003 17.7461 6.55417C16.9475 4.494 16.0276 3.30904 14.7741 2.70919C13.9098 2.29617 13.5105 2.247 11.0641 2.247H8.93621L8.90083 2.59118C8.83006 3.24021 8.72392 7.39987 8.72392 9.36169V11.3186H9.35067C9.69437 11.3137 10.3717 11.2891 10.8569 11.2596C11.5847 11.2153 11.8021 11.1809 12.1053 11.0433C12.8534 10.704 13.3639 9.96155 13.6772 8.752L13.839 8.12756L14.3899 8.10789L14.9409 8.08823V15.9896L14.3899 15.9699L13.839 15.9503L13.6823 15.3258C13.3891 14.1507 12.8231 13.3099 12.1205 13.01C11.797 12.8723 10.9984 12.7937 9.45176 12.7445L8.72392 12.7248V14.2097C8.72392 15.8274 8.8149 18.0154 8.93115 19.2003C9.09289 20.8573 9.52757 21.7718 10.311 22.1013C10.4576 22.1652 10.9327 22.2684 11.3573 22.3274C11.7869 22.3914 12.1862 22.4651 12.2519 22.4995C12.4187 22.5831 12.4288 23.4386 12.262 23.5026C12.1357 23.5517 0.207231 23.5468 0.0859251 23.5026M85.3337 23.8959C84.1307 23.7681 82.2151 23.36 81.5732 23.0945L81.2598 22.9617L81.2194 21.4621C81.1941 20.636 81.1689 19.5297 81.1588 19.0086L81.1436 18.0547L81.3306 17.9662C81.4317 17.917 81.6389 17.8728 81.7906 17.8678L82.0635 17.8531L82.296 18.4136C83.2058 20.5918 84.2773 21.7718 85.6673 22.1258C86.198 22.2635 87.1988 22.2635 87.593 22.1258C88.6949 21.7472 89.3014 20.936 89.3065 19.8248C89.3115 18.512 88.5685 17.8777 85.7633 16.8107C84.0246 16.1519 83.4181 15.8077 82.6953 15.0898C81.9169 14.313 81.5429 13.4328 81.4721 12.1987C81.3862 10.7138 81.8664 9.46003 82.9227 8.39307C83.9892 7.3212 85.3741 6.73609 87.2594 6.56892C88.9223 6.42141 91.4698 6.76559 92.8041 7.31628L93.0467 7.41953L93.0922 8.75692C93.1175 9.49445 93.1428 10.4778 93.1478 10.9498L93.1579 11.8054L92.8294 11.9234C92.3138 12.1102 92.2785 12.0856 91.9904 11.3432C91.1817 9.26335 90.2466 8.27998 88.7859 7.98005C87.8963 7.79813 87.1533 7.9948 86.6125 8.55533C86.1929 8.99293 86.0262 9.38136 85.9857 10.0353C85.9402 10.7433 86.0716 11.1268 86.5164 11.5989C87.0674 12.184 87.962 12.6855 89.7513 13.4132C91.9449 14.3031 92.9911 15.0603 93.5572 16.1666C93.9262 16.8845 94.0323 17.4597 93.9919 18.5611C93.9666 19.3872 93.9363 19.5592 93.7442 20.1149C93.1124 21.9292 91.6871 23.124 89.4834 23.6796C88.7353 23.8713 88.6292 23.8762 87.1482 23.8959C86.294 23.9057 85.4702 23.8959 85.3236 23.8861L85.3337 23.8959ZM73.936 13.1133L75.1137 13.0739L75.0732 12.2626C74.9216 9.39611 74.2039 7.83255 73.0313 7.83255C71.7626 7.83255 70.7467 9.42069 70.3221 12.0709C70.2715 12.3954 70.226 12.7838 70.226 12.9264V13.1919L71.4947 13.1723C72.1922 13.1624 73.289 13.1329 73.941 13.1133M71.8182 23.832C68.4671 23.242 66.0663 20.931 65.2828 17.5286C65.1817 17.091 65.1363 16.5993 65.111 15.6553C65.0705 14.1556 65.1969 13.2263 65.5962 12.0709C66.3594 9.85338 67.7292 8.27998 69.7156 7.33595C71.8131 6.34274 74.679 6.27391 76.534 7.17861C78.6265 8.1964 79.8547 10.232 80.1681 13.187C80.2085 13.5853 80.2338 14.0573 80.2237 14.2392L80.2035 14.5686L75.1996 14.5834L70.1957 14.5981L70.2159 15.1734C70.2614 16.5059 70.5546 17.681 71.1005 18.7086C71.3481 19.1757 71.5453 19.4265 72.0254 19.8985C73.1071 20.9606 74.1837 21.3686 75.8769 21.3686C77.1051 21.3686 77.9896 21.1277 78.9196 20.5475C79.1774 20.3853 79.4403 20.2525 79.5009 20.2525C79.6424 20.2525 79.9659 20.6606 79.9659 20.8376C79.9659 21.1277 78.9955 22.0619 78.0503 22.6814C77.277 23.1928 76.0487 23.6501 74.9823 23.832C74.2393 23.9598 72.5612 23.9549 71.8232 23.8271M55.1032 22.5536C55.5935 22.4651 55.9777 22.2733 56.3871 21.9144C57.4131 21.0146 58.1864 19.161 58.4897 16.8697C58.611 15.9355 58.5958 13.8016 58.4594 13.0198C58.0904 10.9105 57.2918 9.51903 56.1293 8.96342C55.6491 8.73233 55.5733 8.71267 55.0021 8.71267C54.5927 8.71267 54.244 8.75692 53.9407 8.8405L53.4909 8.96834L53.4555 11.3727C53.4151 14.4506 53.5161 22.1553 53.6021 22.3766C53.6577 22.5192 53.7183 22.5487 53.9913 22.5684C54.6332 22.6175 54.7393 22.6175 55.0982 22.5487M52.389 23.8566C51.7168 23.7927 49.6697 23.4583 48.952 23.301L48.4567 23.1928L48.4971 20.6213C48.5881 14.426 48.6033 11.0482 48.5426 7.7588C48.487 4.53826 48.4668 4.19899 48.3404 3.72206C48.1787 3.11729 47.9462 2.69935 47.6631 2.50268C47.5519 2.42893 47.2588 2.32076 47.0061 2.26667C46.167 2.08475 46.2125 2.10933 46.1872 1.74057C46.1721 1.52422 46.1974 1.38164 46.253 1.33738C46.3338 1.27838 53.2382 0 53.4555 0C53.5161 0 53.5263 0.860449 53.4959 3.81548C53.4757 5.91498 53.4707 7.62604 53.4909 7.62604C53.5111 7.62604 53.7638 7.51787 54.0519 7.39003C54.9213 6.99668 55.7249 6.82951 56.8925 6.79018C57.6709 6.76559 58.0297 6.78034 58.429 6.85901C61.0321 7.38511 62.9578 9.45511 63.6351 12.4593C63.812 13.2411 63.8777 15.1882 63.7564 16.1617C63.6553 16.9926 63.3723 18.1137 63.0791 18.8365C61.9671 21.5801 59.5764 23.3649 56.4073 23.832C55.6794 23.9402 53.3847 23.95 52.4042 23.8566H52.389ZM25.8129 22.5831C26.2931 22.4454 26.8794 21.9046 27.1978 21.3195C27.8498 20.1099 28.1379 18.3202 28.143 15.4832C28.1531 11.9234 27.5819 9.66162 26.3689 8.47666C25.8584 7.98005 25.4995 7.82272 24.8475 7.82763C23.407 7.82763 22.4921 9.29285 22.1282 12.179C21.9614 13.5066 21.9614 16.6632 22.1282 17.8236C22.6438 21.4129 23.963 23.124 25.8129 22.588M23.3615 23.8664C21.7239 23.6353 20.2884 22.9617 19.1967 21.9046C18.2818 21.0245 17.6905 20.0558 17.2558 18.7332C16.5734 16.6632 16.5734 14.0032 17.2558 11.9725C17.9128 10.0107 19.3988 8.29965 21.2184 7.4097C23.7355 6.18049 27.2837 6.25916 29.6138 7.59162C31.7114 8.79625 32.9851 10.9302 33.3389 13.8459C33.4451 14.7358 33.3743 16.619 33.2075 17.3958C32.51 20.577 30.4832 22.7945 27.5112 23.6304C27.1928 23.7189 26.6974 23.8271 26.4093 23.8664C25.8028 23.95 23.9529 23.9451 23.3666 23.8664" fill="white"/>
</svg>
