<svg width="100%" height="100%" viewBox="0 0 291 102" fill="none" xmlns="http://www.w3.org/2000/svg">
<path d="M98.7854 97V95.038C99.1754 94.744 99.6374 94.381 100.171 93.949C100.705 93.511 101.254 93.04 101.818 92.536C102.382 92.026 102.904 91.516 103.384 91.006C103.864 90.496 104.254 90.01 104.554 89.548C104.86 89.086 105.013 88.69 105.013 88.36C105.013 87.994 104.923 87.661 104.743 87.361C104.563 87.055 104.323 86.812 104.023 86.632C103.729 86.452 103.399 86.362 103.033 86.362C102.667 86.362 102.334 86.452 102.034 86.632C101.734 86.812 101.494 87.055 101.314 87.361C101.134 87.661 101.044 87.994 101.044 88.36H98.8484C98.8484 87.568 99.0404 86.857 99.4244 86.227C99.8084 85.591 100.315 85.09 100.945 84.724C101.581 84.352 102.277 84.166 103.033 84.166C103.801 84.166 104.5 84.355 105.13 84.733C105.76 85.105 106.264 85.609 106.642 86.245C107.02 86.881 107.209 87.586 107.209 88.36C107.209 88.768 107.134 89.179 106.984 89.593C106.834 90.007 106.624 90.424 106.354 90.844C106.084 91.264 105.766 91.69 105.4 92.122C105.034 92.548 104.629 92.986 104.185 93.436C103.747 93.88 103.285 94.336 102.799 94.804H107.272V97H98.7854ZM131.337 97.234C130.605 97.234 129.939 97.066 129.339 96.73C128.739 96.388 128.22 95.917 127.782 95.317C127.35 94.717 127.017 94.024 126.783 93.238C126.549 92.446 126.432 91.6 126.432 90.7C126.432 89.8 126.549 88.957 126.783 88.171C127.017 87.379 127.35 86.683 127.782 86.083C128.22 85.483 128.739 85.015 129.339 84.679C129.939 84.337 130.605 84.166 131.337 84.166C132.069 84.166 132.735 84.337 133.335 84.679C133.935 85.015 134.448 85.483 134.874 86.083C135.306 86.683 135.639 87.379 135.873 88.171C136.113 88.957 136.233 89.8 136.233 90.7C136.233 91.6 136.113 92.446 135.873 93.238C135.639 94.024 135.306 94.717 134.874 95.317C134.448 95.917 133.935 96.388 133.335 96.73C132.735 97.066 132.069 97.234 131.337 97.234ZM131.337 95.038C131.979 95.038 132.51 94.834 132.93 94.426C133.35 94.018 133.662 93.484 133.866 92.824C134.07 92.164 134.172 91.456 134.172 90.7C134.172 89.902 134.064 89.176 133.848 88.522C133.632 87.862 133.314 87.337 132.894 86.947C132.474 86.557 131.955 86.362 131.337 86.362C130.851 86.362 130.428 86.482 130.068 86.722C129.714 86.956 129.42 87.277 129.186 87.685C128.952 88.093 128.778 88.558 128.664 89.08C128.55 89.596 128.493 90.136 128.493 90.7C128.493 91.45 128.595 92.158 128.799 92.824C129.009 93.484 129.324 94.018 129.744 94.426C130.17 94.834 130.701 95.038 131.337 95.038ZM155.492 97V95.038C155.882 94.744 156.344 94.381 156.878 93.949C157.412 93.511 157.961 93.04 158.525 92.536C159.089 92.026 159.611 91.516 160.091 91.006C160.571 90.496 160.961 90.01 161.261 89.548C161.567 89.086 161.72 88.69 161.72 88.36C161.72 87.994 161.63 87.661 161.45 87.361C161.27 87.055 161.03 86.812 160.73 86.632C160.436 86.452 160.106 86.362 159.74 86.362C159.374 86.362 159.041 86.452 158.741 86.632C158.441 86.812 158.201 87.055 158.021 87.361C157.841 87.661 157.751 87.994 157.751 88.36H155.555C155.555 87.568 155.747 86.857 156.131 86.227C156.515 85.591 157.022 85.09 157.652 84.724C158.288 84.352 158.984 84.166 159.74 84.166C160.508 84.166 161.207 84.355 161.837 84.733C162.467 85.105 162.971 85.609 163.349 86.245C163.727 86.881 163.916 87.586 163.916 88.36C163.916 88.768 163.841 89.179 163.691 89.593C163.541 90.007 163.331 90.424 163.061 90.844C162.791 91.264 162.473 91.69 162.107 92.122C161.741 92.548 161.336 92.986 160.892 93.436C160.454 93.88 159.992 94.336 159.506 94.804H163.979V97H155.492ZM188.595 97V93.949H183.231V91.744L188.082 84.4H190.791V91.753H191.853V93.949H190.791V97H188.595ZM185.778 91.744L188.595 91.753L188.586 87.397L185.778 91.744Z" fill="white"/>
<path d="M0.87 59V58.594C3.48 57.84 3.538 56.912 3.538 48.734V44.906C3.538 36.96 3.48 36.844 0.87 36.554V36.09L10.092 31.218V37.424L11.31 36.322C13.456 34.35 16.472 31.508 20.532 31.508C23.374 31.508 27.086 32.61 27.55 37.598L28.884 36.38C31.088 34.292 33.988 31.508 38.106 31.508C41.412 31.508 45.182 32.958 45.182 39.28V48.734C45.182 56.912 45.182 57.84 47.85 58.594V59H35.728V58.594C38.57 57.84 38.628 56.912 38.628 48.734V37.192C38.628 33.886 37.352 32.784 35.728 32.784C33.698 32.784 31.32 34.698 28.884 37.018L27.608 38.178V48.734C27.608 56.912 27.608 57.84 30.276 58.594V59H18.154V58.594C21.054 57.84 21.054 56.912 21.054 48.734V37.192C21.054 33.886 19.778 32.784 18.154 32.784C16.182 32.784 13.746 34.698 11.31 36.96L10.092 38.12V48.734C10.092 56.912 10.15 57.84 12.992 58.594V59H0.87ZM57.6457 59.406C52.8317 59.406 49.6997 57.028 49.6997 53.374C49.6997 49.43 52.6577 48.154 58.6317 45.718L61.9377 44.326C65.1857 42.934 66.1717 41.658 66.1717 40.15V36.322C66.1717 32.9 63.3877 32.03 61.3577 32.03C58.5737 32.03 57.8197 33.132 56.8337 34.872C56.1377 36.206 55.3837 37.656 53.5277 37.656C52.0197 37.656 51.1497 36.612 51.1497 35.51C51.1497 32.958 55.7317 31.508 61.4157 31.508C65.9397 31.508 72.7257 32.61 72.7257 38.874V51.634C72.7257 57.318 73.1317 58.188 74.9297 58.188C75.5097 58.188 75.9737 58.014 76.4377 57.782L76.5537 58.13C76.0897 58.42 74.8717 59.29 72.3197 59.29C68.4917 59.29 66.7517 57.898 66.2877 55.346L65.3597 56.216C63.2717 58.188 61.1837 59.406 57.6457 59.406ZM56.3117 52.33C56.3117 55.752 57.5877 58.13 60.3717 58.13C62.1697 58.13 63.7937 57.028 65.3017 55.636L66.2297 54.766C66.1717 54.476 66.1717 54.186 66.1717 53.838V42.006C65.7657 42.702 64.7217 43.804 61.9957 44.906L60.4297 45.544C57.0077 46.936 56.3117 48.966 56.3117 52.33ZM89.5244 49.488C87.6104 49.488 85.5224 49.082 83.6664 48.27L83.0864 48.734C81.5784 49.894 80.9984 50.532 80.9984 51.17C80.9984 51.924 81.5204 52.678 84.0724 52.91L93.5264 53.664C101.066 54.36 103.154 56.332 103.154 59.87C103.154 65.38 97.5284 68.976 89.2924 68.976C83.0864 68.976 76.6484 67.236 76.6484 63.292C76.6484 60.682 79.8384 59.232 82.5064 58.594C79.9544 57.84 78.6204 56.216 78.6204 54.128C78.6204 51.576 80.5344 50.068 82.5064 48.618L83.2024 48.096C80.3604 46.704 78.1564 44.268 78.1564 40.73C78.1564 34.64 84.4204 31.45 89.5244 31.45C91.5544 31.45 93.7584 31.972 95.6724 32.958C97.8764 31.16 100.08 30.348 101.53 30.348C103.328 30.348 103.966 31.218 103.966 32.436C103.966 33.654 103.096 34.35 102.168 34.35C100.428 34.35 99.4424 32.668 97.5284 32.668C96.9484 32.668 96.5424 32.784 96.0784 33.132C98.8624 34.64 101.008 37.192 101.008 40.73C101.008 46.762 94.5704 49.488 89.5244 49.488ZM89.5244 49.024C92.1344 49.024 95.0344 46.994 95.0344 40.73C95.0344 34.466 92.3084 31.972 89.5244 31.972C86.6824 31.972 84.0724 34.466 84.0724 40.73C84.0724 46.994 86.8564 49.024 89.5244 49.024ZM80.5344 63.118C80.5344 66.714 83.7824 68.454 89.2924 68.454C97.1224 68.454 100.66 65.438 100.66 63.06C100.66 60.798 97.6444 60.16 92.5984 59.754L85.1164 59.058C84.4204 59 83.7824 58.884 83.2024 58.768C81.2884 59.464 80.5344 60.972 80.5344 63.118ZM112.365 68.918C110.393 68.918 109.349 67.932 109.349 66.54C109.349 65.032 110.335 64.336 111.437 64.336C113.409 64.336 114.105 66.134 115.439 66.134C116.541 66.134 117.585 65.09 119.499 60.856L119.963 59.87L109.639 38.236C107.319 33.422 106.913 32.784 105.405 32.378V31.972H116.831V32.378C115.091 32.668 114.221 33.596 116.367 38.12L123.211 52.446L129.011 39.512C131.679 33.422 130.171 32.784 127.851 32.378V31.972H134.463V32.378C132.955 32.726 132.317 33.364 129.591 39.512L120.079 60.856C117.411 66.888 115.555 68.918 112.365 68.918ZM142.607 59.406C137.793 59.406 134.661 57.028 134.661 53.374C134.661 49.43 137.619 48.154 143.593 45.718L146.899 44.326C150.147 42.934 151.133 41.658 151.133 40.15V36.322C151.133 32.9 148.349 32.03 146.319 32.03C143.535 32.03 142.781 33.132 141.795 34.872C141.099 36.206 140.345 37.656 138.489 37.656C136.981 37.656 136.111 36.612 136.111 35.51C136.111 32.958 140.693 31.508 146.377 31.508C150.901 31.508 157.687 32.61 157.687 38.874V51.634C157.687 57.318 158.093 58.188 159.891 58.188C160.471 58.188 160.935 58.014 161.399 57.782L161.515 58.13C161.051 58.42 159.833 59.29 157.281 59.29C153.453 59.29 151.713 57.898 151.249 55.346L150.321 56.216C148.233 58.188 146.145 59.406 142.607 59.406ZM141.273 52.33C141.273 55.752 142.549 58.13 145.333 58.13C147.131 58.13 148.755 57.028 150.263 55.636L151.191 54.766C151.133 54.476 151.133 54.186 151.133 53.838V42.006C150.727 42.702 149.683 43.804 146.957 44.906L145.391 45.544C141.969 46.936 141.273 48.966 141.273 52.33ZM162.183 59V58.594C164.793 57.84 164.851 56.912 164.851 48.734V45.196C164.851 36.96 164.793 36.844 162.183 36.554V36.09L171.405 31.218V37.598L172.565 36.264C175.812 32.61 177.901 31.566 180.221 31.566C182.425 31.566 183.411 32.552 183.411 34.176C183.411 36.206 182.251 37.018 180.859 37.018C178.539 37.018 177.437 34.756 175.812 34.756C175.001 34.756 174.131 35.278 172.623 36.902L171.405 38.294V48.734C171.405 56.912 171.463 57.84 174.421 58.594V59H162.183ZM196.393 59V58.594C199.003 57.84 199.061 56.912 199.061 48.734V44.906C199.061 36.96 199.003 36.844 196.393 36.554V36.09L205.615 31.218V38.352L207.355 36.728C209.965 34.35 212.981 31.508 217.157 31.508C220.637 31.508 224.697 32.958 224.697 39.28V48.734C224.697 56.912 224.697 57.84 227.365 58.594V59H215.185V58.594C218.027 57.84 218.143 56.912 218.143 48.734V37.192C218.143 33.886 216.519 32.842 214.663 32.842C212.691 32.842 210.255 34.698 207.355 37.366L205.615 38.99V48.734C205.615 56.912 205.673 57.84 208.515 58.594V59H196.393ZM247.413 27.738L247.123 27.564L249.095 19.618C249.559 17.762 250.197 16.602 251.821 16.602C253.213 16.602 253.967 17.53 253.967 18.806C253.967 19.618 253.503 20.546 252.865 21.3L247.413 27.738ZM239.699 27.738L239.351 27.564L241.323 19.618C241.787 17.762 242.425 16.602 244.049 16.602C245.499 16.602 246.195 17.53 246.195 18.806C246.195 19.618 245.731 20.546 245.093 21.3L239.699 27.738ZM243.933 59.638C238.133 59.638 229.143 55.694 229.143 45.602C229.143 35.742 238.133 31.334 243.933 31.334C249.733 31.334 258.723 35.742 258.723 45.602C258.723 55.694 249.733 59.638 243.933 59.638ZM243.933 59.116C248.167 59.116 251.879 56.1 251.879 45.602C251.879 35.452 248.167 31.798 243.933 31.798C239.699 31.798 235.987 35.452 235.987 45.602C235.987 56.1 239.699 59.116 243.933 59.116ZM260.907 59V58.594C263.517 57.84 263.575 56.912 263.575 48.734V27.796C263.575 19.734 263.517 19.502 260.907 19.154V18.69L270.129 13.992V44.384L281.613 35.684C284.049 33.886 283.469 32.61 281.381 32.378V31.972H288.747V32.378C286.891 32.9 284.861 33.886 282.019 36.09L275.059 41.368L287.297 56.042C288.863 57.84 289.559 58.304 290.545 58.594V59H278.423V58.594C280.047 58.362 280.569 57.376 278.713 55.172L270.129 44.964V48.734C270.129 56.912 270.187 57.84 273.029 58.594V59H260.907Z" fill="white"/>
</svg>
