<svg width="40" height="40" viewBox="0 0 40 40" fill="none" xmlns="http://www.w3.org/2000/svg">
<path d="M19.9999 0.375C10.8669 0.375 2.71892 6.9395 0.808425 15.8785C-0.146075 20.345 0.496925 25.0945 2.62642 29.136C4.67592 33.0255 8.03592 36.169 12.0559 37.9505C16.2374 39.804 21.0379 40.127 25.4329 38.863C29.6729 37.644 33.4324 34.9685 35.9919 31.377C41.3434 23.8685 40.6279 13.3215 34.3319 6.5935C30.6419 2.6505 25.4009 0.375 19.9999 0.375ZM29.4144 21.0485L24.0644 26.5275C22.7099 27.915 20.5689 25.813 21.9179 24.432L24.6174 21.6675H11.8244C10.9159 21.6675 10.1579 20.909 10.1579 20.001C10.1579 19.093 10.9164 18.3345 11.8244 18.3345H24.5534L21.8004 15.582C20.4324 14.214 22.5534 12.0925 23.9214 13.4605L29.4019 18.9405C29.9829 19.521 29.9884 20.461 29.4144 21.0485Z" fill="#BBBBBB"/>
</svg>
