<svg id="Layer_1" data-name="Layer 1" xmlns="http://www.w3.org/2000/svg" viewBox="0 0 949.46 73.81"><defs><style>.cls-1{fill:#fff;}</style></defs><g id="BLOCK_RECORD"><polygon class="cls-1" points="16.11 12.38 48.78 71.75 86.62 71.77 118.74 12.37 134.84 12.38 134.84 1.61 86.41 1.61 86.41 12.37 100.4 12.37 77.01 55.62 53.31 12.38 70.3 12.37 70.3 1.61 0.04 1.61 0.03 12.38 16.11 12.38"/><path class="cls-1" d="M432.43,12.35V1.61h64.79V12.35H481.07V60.81h15c13.86,0,22.95-9.15,22.95-21.58h10.69V71.68H432.42V60.83h16.34l0-48.48Z"/><path class="cls-1" d="M275.33.13c-32.54,0-49.81,16.23-49.81,36.6,0,20.65,16.63,37.11,50,37.11s49.81-16.46,49.81-37.11C325.33,16.36,307.87.13,275.33.13ZM275,62.69c-11.88-.22-17.11-13.35-16.88-26.39.24-13.52,6.7-25.3,17.83-25.11s17,12.21,16.77,25.71C292.46,49.65,287.2,62.91,275,62.69Z"/><polygon class="cls-1" points="640.19 12.38 672.87 71.75 710.71 71.77 742.82 12.37 758.92 12.38 758.92 1.61 710.5 1.61 710.5 12.37 724.48 12.37 701.1 55.62 677.39 12.38 694.39 12.37 694.39 1.61 624.13 1.61 624.11 12.38 640.19 12.38"/><path class="cls-1" d="M899.43.13c-32.53,0-49.81,16.23-49.81,36.6,0,20.65,16.64,37.11,50,37.11s49.81-16.46,49.81-37.11C949.43,16.36,932,.13,899.43.13Zm-.36,62.56C887.19,62.47,882,49.34,882.2,36.3c.23-13.52,6.7-25.3,17.83-25.11S917,23.4,916.79,36.9C916.57,49.65,911.31,62.91,899.07,62.69Z"/></g></svg>